<?xml version="1.0" encoding="UTF-8" standalone="no"?>
<!-- Created with Inkscape (http://www.inkscape.org/) -->

<svg
   width="240"
   height="240"
   viewBox="0 0 240 240"
   version="1.1"
   id="svg1"
   inkscape:export-filename="bride-240px.png"
   inkscape:export-xdpi="96"
   inkscape:export-ydpi="96"
   sodipodi:docname="groom-bride-240px.svg"
   inkscape:version="1.3 (0e150ed6c4, 2023-07-21)"
   xmlns:inkscape="http://www.inkscape.org/namespaces/inkscape"
   xmlns:sodipodi="http://sodipodi.sourceforge.net/DTD/sodipodi-0.dtd"
   xmlns="http://www.w3.org/2000/svg"
   xmlns:svg="http://www.w3.org/2000/svg">
  <sodipodi:namedview
     id="namedview1"
     pagecolor="#ffffff"
     bordercolor="#000000"
     borderopacity="0.25"
     inkscape:showpageshadow="2"
     inkscape:pageopacity="0.0"
     inkscape:pagecheckerboard="0"
     inkscape:deskcolor="#d1d1d1"
     inkscape:document-units="px"
     inkscape:zoom="0.84687499"
     inkscape:cx="126.93727"
     inkscape:cy="78.523986"
     inkscape:window-width="1920"
     inkscape:window-height="1009"
     inkscape:window-x="-8"
     inkscape:window-y="-8"
     inkscape:window-maximized="1"
     inkscape:current-layer="layer3" />
  <defs
     id="defs1" />
  <g
     inkscape:groupmode="layer"
     id="layer3"
     inkscape:label="ex">
    <path
       id="path28-4"
       style="display:inline;fill:#94357b;fill-opacity:1;stroke:#000000;stroke-width:4.30295;stroke-dasharray:none"
       d="m 90.102744,235.50969 h 62.843346 c 33.08993,0 54.43963,-19.1255 43.09798,-49.74315 L 184.73264,155.23053 C 173.39098,124.61291 169.70826,100.1454 136.61832,100.1454 h -27.85057 c -33.089965,0 -36.2473,24.2253 -49.223153,54.18693 l -13.613552,31.43421 c -12.975875,29.96166 11.081737,49.74315 44.171699,49.74315 z"
       sodipodi:nodetypes="sssssssss"
       inkscape:label="body-woman" />
    <path
       style="display:inline;fill:#94357b;fill-opacity:1;stroke:#000000;stroke-width:4.30295;stroke-dasharray:none;stroke-opacity:1;paint-order:normal"
       d="M 59.634356,150.9194 H 184.43586"
       id="path34-3" />
    <path
       style="display:inline;fill:#94357b;fill-opacity:1;stroke:#000000;stroke-width:4.30295;stroke-dasharray:none;stroke-opacity:1;paint-order:normal"
       d="m 157.44317,151.87208 13.33756,20.00635"
       id="path35-1" />
    <path
       style="display:inline;fill:#94357b;fill-opacity:1;stroke:#000000;stroke-width:4.30295;stroke-dasharray:none;stroke-opacity:1;paint-order:normal"
       d="M 159.34854,151.7133 147.59503,172.071"
       id="path36-0" />
    <path
       id="rect7-3"
       style="display:inline;fill:#b37254;stroke:#000000;stroke-width:4.30295;stroke-dasharray:none"
       d="m 107.11546,26.090985 h 28.35015 c 19.44446,0 30.10823,10.280371 29.77335,29.909776 l -0.31323,18.360825 C 164.59085,93.990989 145.31547,114.156 125.87101,114.156 H 115.2595 c -19.444458,0 -38.878721,-20.165011 -38.543843,-39.794414 L 77.028869,56.000761 C 77.363746,36.371356 87.670995,26.090985 107.11546,26.090985 Z"
       sodipodi:nodetypes="sssssssss"
       inkscape:label="face1" />
    <path
       id="path3-6"
       style="display:inline;fill:#783838;stroke:#000000;stroke-width:4.30295;stroke-dasharray:none"
       inkscape:label="eye"
       d="m 149.40095,67.50189 a 8.3770935,8.3770935 0 0 1 -8.37709,8.377093 8.3770935,8.3770935 0 0 1 -8.3771,-8.377093 8.3770935,8.3770935 0 0 1 8.3771,-8.377097 8.3770935,8.3770935 0 0 1 8.37709,8.377097 z" />
    <path
       id="path11-3"
       style="display:inline;fill:#783838;stroke:#000000;stroke-width:4.30295;stroke-dasharray:none"
       inkscape:label="eye"
       d="m 111.17944,67.50189 a 8.3770935,8.3770935 0 0 1 -8.37709,8.377093 8.3770935,8.3770935 0 0 1 -8.377097,-8.377093 8.3770935,8.3770935 0 0 1 8.377097,-8.377097 8.3770935,8.3770935 0 0 1 8.37709,8.377097 z" />
    <path
       id="path19-8"
       style="display:inline;fill:none;stroke:#000000;stroke-width:4.46076;stroke-dasharray:none;stroke-opacity:1"
       inkscape:label="glasses"
       d="m 161.83814,68.436601 c 0,8.669276 -9.72263,15.69711 -17.71755,15.69711 -17.99811,0 -17.49402,-7.489775 -17.49402,-15.69711 0,-8.207337 -2.0919,-15.697118 17.49402,-15.697118 7.99492,0 17.71755,7.02784 17.71755,15.697118 z"
       sodipodi:nodetypes="ssass" />
    <path
       id="path20-9"
       style="display:inline;fill:none;stroke:#000000;stroke-width:4.46102;stroke-dasharray:none;stroke-opacity:1"
       inkscape:label="glasses"
       d="m 117.30536,68.324326 c 0,8.669201 1.7845,15.696974 -18.278788,15.696974 -7.995983,0 -18.055231,-7.027775 -18.055231,-15.696974 -2.2e-5,-8.669203 10.06013,-15.577971 18.055231,-15.696982 21.333538,-0.31756 18.278808,7.027779 18.278788,15.696982 z"
       sodipodi:nodetypes="sssss" />
    <path
       style="display:inline;fill:none;fill-opacity:1;stroke:#000000;stroke-width:4.30295;stroke-dasharray:none;stroke-opacity:1"
       d="m 117.33475,67.252581 h 9.65563 v 0 0"
       id="path21-6" />
    <path
       id="path5"
       style="display:inline;fill:#ebd2a7;fill-opacity:1;stroke:#000000;stroke-width:3.88991;stroke-dasharray:none;stroke-opacity:1"
       inkscape:label="hair-short"
       d="M 123.4613,4.0338669 C 90.325722,3.9957643 74.990668,25.31335 71.292452,37.313008 66.176457,49.250393 59.714757,96.02015 69.918197,103.57972 c 0,0 12.960944,3.99027 17.067359,0.0528 C 100.46027,90.712189 70.176589,47.426161 89.164011,47.670196 l 65.069029,0.836301 c 18.98742,0.244035 -13.30533,42.401181 -0.22418,55.468203 4.04703,4.04265 17.16056,-0.0879 17.16056,-0.0879 11.26671,-7.66953 5.51078,-55.922384 0.80155,-66.748523 C 167.2809,23.890167 156.52064,4.0331225 123.4613,4.0338669 Z"
       sodipodi:nodetypes="cccassaccc" />
  </g>
</svg>
