<?xml version="1.0" encoding="UTF-8" standalone="no"?>
<!-- Created with Inkscape (http://www.inkscape.org/) -->

<svg
   width="120"
   height="120"
   viewBox="0 0 120 120"
   version="1.1"
   id="svg1"
   inkscape:version="1.3 (0e150ed6c4, 2023-07-21)"
   sodipodi:docname="human-designs.svg"
   inkscape:export-filename="ex.svg"
   inkscape:export-xdpi="96"
   inkscape:export-ydpi="96"
   xmlns:inkscape="http://www.inkscape.org/namespaces/inkscape"
   xmlns:sodipodi="http://sodipodi.sourceforge.net/DTD/sodipodi-0.dtd"
   xmlns="http://www.w3.org/2000/svg"
   xmlns:svg="http://www.w3.org/2000/svg">
  <sodipodi:namedview
     id="namedview1"
     pagecolor="#ffffff"
     bordercolor="#000000"
     borderopacity="0.25"
     inkscape:showpageshadow="2"
     inkscape:pageopacity="0.0"
     inkscape:pagecheckerboard="0"
     inkscape:deskcolor="#d1d1d1"
     inkscape:document-units="px"
     inkscape:zoom="4.7906484"
     inkscape:cx="64.187553"
     inkscape:cy="57.090393"
     inkscape:window-width="1920"
     inkscape:window-height="1009"
     inkscape:window-x="-8"
     inkscape:window-y="-8"
     inkscape:window-maximized="1"
     inkscape:current-layer="layer2"
     showguides="false"
     inkscape:export-bgcolor="#ffffff00" />
  <defs
     id="defs1">
    <linearGradient
       id="swatch2"
       inkscape:swatch="solid">
      <stop
         style="stop-color:#000000;stop-opacity:1;"
         offset="0"
         id="stop2" />
    </linearGradient>
  </defs>
  <g
     inkscape:groupmode="layer"
     id="layer2"
     inkscape:label="body"
     style="display:inline">
    <path
       id="path28-4"
       style="display:inline;fill:#94357b;fill-opacity:1;stroke:#000000;stroke-width:2;stroke-dasharray:none"
       d="m 46.259507,113.91694 h 29.209411 c 15.380111,0 25.303392,-8.88948 20.031822,-23.120478 L 90.243219,76.603414 C 84.971649,62.37243 83.259929,51 67.879818,51 H 54.934947 c -15.38012,0 -16.84764,11.25985 -22.878772,25.185934 l -6.32755,14.610528 c -6.03114,13.926098 5.15077,23.120478 20.530882,23.120478 z"
       sodipodi:nodetypes="sssssssss"
       inkscape:label="body-woman" />
    <path
       style="display:inline;fill:#94357b;fill-opacity:1;stroke:#000000;stroke-width:2;stroke-dasharray:none;stroke-opacity:1;paint-order:normal"
       d="M 32.097895,74.599612 H 90.105279"
       id="path34-3" />
    <path
       style="display:inline;fill:#94357b;fill-opacity:1;stroke:#000000;stroke-width:2;stroke-dasharray:none;stroke-opacity:1;paint-order:normal"
       d="m 77.559148,75.042417 6.199261,9.298893"
       id="path35-1" />
    <path
       style="display:inline;fill:#94357b;fill-opacity:1;stroke:#000000;stroke-width:2;stroke-dasharray:none;stroke-opacity:1;paint-order:normal"
       d="m 78.444758,74.968616 -5.463,9.4622"
       id="path36-0" />
  </g>
  <g
     inkscape:groupmode="layer"
     id="layer3"
     inkscape:label="head"
     style="display:inline">
    <path
       id="rect7"
       style="display:inline;fill:#b37254;stroke:#000000;stroke-width:2;stroke-dasharray:none"
       d="m 54.166972,16.579719 h 13.177069 c 9.037728,0 13.994217,4.778287 13.838568,13.901979 l -0.14559,8.534059 C 80.881371,48.139448 71.922229,57.51209 62.884502,57.51209 h -4.932201 c -9.037731,0 -18.070723,-9.372642 -17.915075,-18.496333 l 0.145589,-8.534059 c 0.15565,-9.123692 4.946429,-13.901979 13.984157,-13.901979 z"
       sodipodi:nodetypes="sssssssss"
       inkscape:label="face1" />
    <path
       id="path3"
       style="display:inline;fill:#783838;stroke:#000000;stroke-width:2;stroke-dasharray:none"
       inkscape:label="eye"
       d="M 73.82115,35.82739 A 3.8936493,3.8936493 0 0 1 69.9275,39.721039 3.8936493,3.8936493 0 0 1 66.033851,35.82739 3.8936493,3.8936493 0 0 1 69.9275,31.933739 3.8936493,3.8936493 0 0 1 73.82115,35.82739 Z" />
    <path
       id="path11"
       style="display:inline;fill:#783838;stroke:#000000;stroke-width:2;stroke-dasharray:none"
       inkscape:label="eye"
       d="M 56.055899,35.82739 A 3.8936493,3.8936493 0 0 1 52.16225,39.721039 3.8936493,3.8936493 0 0 1 48.2686,35.82739 3.8936493,3.8936493 0 0 1 52.16225,31.933739 3.8936493,3.8936493 0 0 1 56.055899,35.82739 Z" />
    <path
       id="path19"
       style="display:inline;fill:none;stroke:#000000;stroke-width:2.07335;stroke-dasharray:none;stroke-opacity:1"
       inkscape:label="glasses"
       d="m 79.601917,36.261841 c 0,4.029455 -4.519046,7.295972 -8.23507,7.295972 -8.36547,0 -8.131164,-3.481226 -8.131165,-7.295972 -10e-7,-3.814747 -0.972315,-7.295976 8.131165,-7.295976 3.716025,0 8.235072,3.26652 8.23507,7.295976 z"
       sodipodi:nodetypes="ssass" />
    <path
       id="path20"
       style="display:inline;fill:none;stroke:#000000;stroke-width:2.07347;stroke-dasharray:none;stroke-opacity:1"
       inkscape:label="glasses"
       d="m 58.903215,36.209656 c 0,4.02942 0.829426,7.295909 -8.495939,7.295909 -3.716508,0 -8.39202,-3.26649 -8.39202,-7.295909 -2e-6,-4.029421 4.675922,-7.240597 8.39202,-7.295913 9.915772,-0.147601 8.495941,3.266492 8.495939,7.295913 z"
       sodipodi:nodetypes="sssss" />
    <path
       style="display:inline;fill:none;fill-opacity:1;stroke:#000000;stroke-width:2;stroke-dasharray:none;stroke-opacity:1"
       d="m 58.916868,35.711512 h 4.48791 v 0 0"
       id="path21" />
    <path
       id="path5"
       style="display:inline;fill:#ebd2a7;fill-opacity:1;stroke:#000000;stroke-width:1.80802;stroke-dasharray:none;stroke-opacity:1"
       inkscape:label="hair-short"
       d="M 61.764471,6.3276326 C 46.36315,6.3099187 39.235462,16.218276 37.516544,21.795683 c -2.377905,5.548463 -5.381281,27.286911 -0.638749,30.80058 0,0 6.024201,1.854664 7.932853,0.02454 6.263012,-6.005332 -7.812754,-26.124555 1.012545,-26.011128 l 30.243902,0.38871 c 8.825298,0.113427 -6.184285,19.707949 -0.104203,25.781463 1.881045,1.879012 7.976183,-0.04086 7.976183,-0.04086 5.236738,-3.564777 2.561392,-25.992565 0.372558,-31.024524 C 82.131698,15.556785 77.130361,6.3272869 61.764471,6.3276326 Z"
       sodipodi:nodetypes="cccassaccc" />
  </g>
</svg>
