<?xml version="1.0" encoding="UTF-8" standalone="no"?>
<!-- Created with Inkscape (http://www.inkscape.org/) -->

<svg
   width="240"
   height="240"
   viewBox="0 0 240 240"
   version="1.1"
   id="svg1"
   inkscape:export-filename="bride-240px.png"
   inkscape:export-xdpi="96"
   inkscape:export-ydpi="96"
   xmlns:inkscape="http://www.inkscape.org/namespaces/inkscape"
   xmlns:sodipodi="http://sodipodi.sourceforge.net/DTD/sodipodi-0.dtd"
   xmlns="http://www.w3.org/2000/svg"
   xmlns:svg="http://www.w3.org/2000/svg">
  <sodipodi:namedview
     id="namedview1"
     pagecolor="#ffffff"
     bordercolor="#000000"
     borderopacity="0.25"
     inkscape:showpageshadow="2"
     inkscape:pageopacity="0.0"
     inkscape:pagecheckerboard="0"
     inkscape:deskcolor="#d1d1d1"
     inkscape:document-units="px"
     inkscape:zoom="2.3953242"
     inkscape:cx="60.325863"
     inkscape:cy="123.78283"
     inkscape:window-width="1920"
     inkscape:window-height="1009"
     inkscape:window-x="-8"
     inkscape:window-y="-8"
     inkscape:window-maximized="1"
     inkscape:current-layer="layer2" />
  <defs
     id="defs1">
    <inkscape:path-effect
       effect="bspline"
       id="path-effect15"
       is_visible="true"
       lpeversion="1.3"
       weight="33.333333"
       steps="2"
       helper_size="0"
       apply_no_weight="true"
       apply_with_weight="true"
       only_selected="false"
       uniform="false" />
  </defs>
  <g
     inkscape:label="groom"
     inkscape:groupmode="layer"
     id="layer1"
     style="display:none">
    <path
       id="path1"
       style="display:inline;fill:#180a24;fill-opacity:1;stroke:#000000;stroke-width:4.14171;stroke-dasharray:none"
       d="m 90.136634,235.17402 h 60.488396 c 31.84995,0 42.03148,-16.45665 41.48296,-47.87912 l -0.51308,-29.39172 c -0.54853,-31.42242 -24.83587,-53.02091 -56.68579,-53.02091 h -26.80694 c -31.849945,0 -61.543581,21.59849 -60.995058,53.02091 l 0.513071,29.39172 c 0.548525,31.42247 10.666492,47.87912 42.516441,47.87912 z"
       sodipodi:nodetypes="sssssssss"
       inkscape:label="body-man" />
    <path
       style="display:inline;fill:#fff8f0;fill-opacity:1;stroke:#000000;stroke-width:4.14171;stroke-dasharray:none;stroke-opacity:1"
       d="m 121.59233,166.44275 22.35903,-59.17903 -45.308927,1.08084 21.454997,58.09883 z"
       id="path12"
       sodipodi:nodetypes="ccccc" />
    <rect
       style="display:inline;fill:#fff8f0;fill-opacity:1;stroke:#000000;stroke-width:3.52459;stroke-dasharray:none;stroke-opacity:1"
       id="rect13"
       width="21.081617"
       height="8.9780655"
       x="146.20251"
       y="138.6387" />
    <path
       style="display:inline;fill:none;fill-opacity:1;stroke:#000000;stroke-width:4.1135;stroke-dasharray:none;stroke-opacity:1"
       d="m 132.46682,127.26633 -11.28466,-8.89428 -11.90198,9.00689"
       id="path16"
       sodipodi:nodetypes="ccc" />
    <path
       id="rect7"
       style="display:inline;fill:#e6ad87;stroke:#000000;stroke-width:4.14171;stroke-dasharray:none"
       d="m 107.5704,31.895021 h 27.28778 c 18.7158,0 28.97997,9.895136 28.65764,28.788957 l -0.3015,17.672784 C 162.892,97.250584 144.33894,116.65994 125.62313,116.65994 h -10.21386 c -18.715818,0 -37.421817,-19.409356 -37.099493,-38.303178 L 78.61127,60.683978 C 78.933599,41.790157 88.854598,31.895021 107.5704,31.895021 Z"
       sodipodi:nodetypes="sssssssss"
       inkscape:label="face1" />
    <path
       style="display:inline;fill:#ebd2a7;fill-opacity:1;stroke:#000000;stroke-width:4.14171;stroke-dasharray:none"
       d="m 157.83845,62.236125 c -3.97661,0.635814 -8.14219,-0.167532 -11.71202,-1.88311 -3.56982,-1.715598 -6.57274,-4.30228 -9.01618,-7.225516 -4.88693,-5.846433 -7.56352,-12.927715 -11.12779,-19.517542 -2.37986,-4.400004 -5.20445,-8.67936 -6.44704,-13.450853 -0.53712,-2.062486 -0.76729,-4.209464 -0.44869,-6.309103 0.31858,-2.099637 1.20701,-4.153199 2.7241,-5.7621894 1.72165,-1.8259128 4.19445,-3.0059262 6.79033,-3.4664011 2.59589,-0.4604541 5.30652,-0.2295125 7.84199,0.4549251 5.07094,1.3688749 9.33961,4.4463703 13.4313,7.4951004 4.51299,3.362631 9.00117,6.7907 12.8658,10.765578 3.86463,3.974878 7.10882,8.54169 8.77922,13.625447 1.67038,5.083778 1.67299,10.722753 -0.68763,15.574907 -1.18033,2.426086 -2.93857,4.628522 -5.17289,6.334117 -2.23435,1.705597 -4.94744,2.905283 -7.8205,3.36464 z"
       id="path9"
       inkscape:label="hair11" />
    <path
       style="display:inline;fill:#ebd2a7;fill-opacity:1;stroke:#000000;stroke-width:4.11064;stroke-dasharray:none"
       d="m 130.88796,31.380538 c -2.14549,3.58005 -8.02232,8.623012 -11.85561,11.150695 -7.66657,5.055367 -16.061,9.893376 -24.637951,13.910521 -2.586179,1.211262 -5.131098,2.531224 -7.975197,3.289549 -1.422048,0.379153 -2.913891,0.613222 -4.413147,0.602971 -1.499252,-0.01036 -3.007527,-0.270805 -4.329843,-0.834802 -1.367282,-0.583194 -2.507477,-1.479729 -3.34545,-2.520684 -0.837978,-1.040976 -1.380829,-2.223227 -1.685737,-3.436332 -0.609819,-2.426253 -0.279915,-4.935651 0.155044,-7.385739 1.080934,-6.088742 2.821314,-12.157543 6.098396,-17.723188 3.277074,-5.565667 8.176283,-10.629461 14.666659,-13.943841 6.490376,-3.314379 14.654016,-4.743786 22.106516,-3.181638 3.72625,0.781063 11.17679,8.131495 11.17679,8.131495"
       id="path10"
       sodipodi:nodetypes="csssssssssssc"
       inkscape:label="hair1" />
    <path
       id="path3"
       style="display:inline;fill:#4b798f;stroke:#000000;stroke-width:4.14171;stroke-dasharray:none"
       inkscape:label="eye"
       d="m 148.27132,71.754117 a 8.0631754,8.0631754 0 0 1 -8.06318,8.063177 8.0631754,8.0631754 0 0 1 -8.06317,-8.063177 8.0631754,8.0631754 0 0 1 8.06317,-8.063177 8.0631754,8.0631754 0 0 1 8.06318,8.063177 z" />
    <path
       id="path11"
       style="display:inline;fill:#4b798f;stroke:#000000;stroke-width:4.14171;stroke-dasharray:none"
       inkscape:label="eye"
       d="m 111.4821,71.754117 a 8.0631754,8.0631754 0 0 1 -8.06318,8.063177 8.0631754,8.0631754 0 0 1 -8.063177,-8.063177 8.0631754,8.0631754 0 0 1 8.063177,-8.063177 8.0631754,8.0631754 0 0 1 8.06318,8.063177 z" />
    <path
       id="path19"
       style="display:inline;fill:none;stroke:#000000;stroke-width:4.29361;stroke-dasharray:none;stroke-opacity:1"
       inkscape:label="glasses"
       d="m 160.24244,72.653799 c 0,8.344399 -9.35829,15.108882 -17.05362,15.108882 -17.32365,0 -16.83845,-7.209095 -16.83845,-15.108882 0,-7.899786 -2.01351,-15.108902 16.83845,-15.108902 7.69533,0 17.05362,6.764483 17.05362,15.108902 z"
       sodipodi:nodetypes="ssass" />
    <path
       id="path20"
       style="display:inline;fill:none;stroke:#000000;stroke-width:4.29385;stroke-dasharray:none;stroke-opacity:1"
       inkscape:label="glasses"
       d="m 117.37846,72.545721 c 0,8.344337 1.71763,15.108758 -17.593833,15.108758 -7.696342,0 -17.37864,-6.764421 -17.37864,-15.108758 -5e-6,-8.344336 9.683147,-14.994197 17.37864,-15.108757 20.534113,-0.305657 17.593853,6.764421 17.593833,15.108757 z"
       sodipodi:nodetypes="sssss" />
    <path
       style="display:inline;fill:none;fill-opacity:1;stroke:#000000;stroke-width:4.14171;stroke-dasharray:none;stroke-opacity:1"
       d="m 117.40675,71.514146 h 9.2938 v 0 0"
       id="path21" />
  </g>
  <g
     inkscape:groupmode="layer"
     id="layer2"
     inkscape:label="bride"
     style="display:inline">
    <path
       id="path28"
       style="display:inline;fill:#fff8f0;fill-opacity:1;stroke:#000000;stroke-width:4.21569;stroke-dasharray:none"
       d="M 91.270518,234.72459 H 152.8394 c 32.4189,0 60.72024,-22.63532 42.22398,-48.73436 l -21.20184,-29.91675 c -18.49625,-26.09904 -4.5999,-53.96803 -37.01879,-53.96803 h -27.28577 c -32.418886,0 -18.722195,27.64055 -38.105071,53.08805 l -23.457298,30.79673 c -19.382915,25.4475 10.857024,48.73436 43.275907,48.73436 z"
       sodipodi:nodetypes="sssssssss"
       inkscape:label="body-woman" />
    <path
       style="display:inline;fill:none;stroke:#000000;stroke-width:2.34264;stroke-linecap:square;stroke-linejoin:bevel;stroke-dasharray:none"
       d="m 39.429181,66.722126 c 6.88154,6.787582 13.76308,13.575164 20.560677,13.568392 6.797597,-0.0068 13.511252,-6.8079 20.224906,-13.609026"
       id="path15"
       inkscape:path-effect="#path-effect15"
       inkscape:original-d="m 39.429181,66.722126 c 0,0 13.76308,13.575164 20.64462,20.362746 6.713654,-6.801127 13.427309,-13.602254 20.140963,-20.40338"
       sodipodi:nodetypes="ccc"
       transform="matrix(1.4799963,0,0,2.1880861,34.049699,-38.227841)" />
    <path
       id="rect7-5"
       style="display:inline;fill:#e6ad87;stroke:#000000;stroke-width:4.21569;stroke-dasharray:none"
       d="m 109.0157,27.814418 h 27.77522 c 19.05013,0 29.49764,10.071887 29.16956,29.303213 L 165.6536,75.106102 C 165.32551,94.337426 146.44103,114.0935 127.3909,114.0935 h -10.39631 c -19.050129,0 -38.09027,-19.756074 -37.762205,-38.987398 L 79.539266,57.117631 C 79.867352,37.886305 89.965573,27.814418 109.0157,27.814418 Z"
       sodipodi:nodetypes="sssssssss"
       inkscape:label="face1" />
    <path
       id="path3-3"
       style="display:inline;fill:#b37254;stroke:#000000;stroke-width:4.21569;stroke-dasharray:none"
       inkscape:label="eye"
       d="m 150.44366,68.385519 a 8.2072081,8.2072081 0 0 1 -8.20721,8.207208 8.2072081,8.2072081 0 0 1 -8.20721,-8.207208 8.2072081,8.2072081 0 0 1 8.20721,-8.207211 8.2072081,8.2072081 0 0 1 8.20721,8.207211 z" />
    <path
       id="path11-5"
       style="display:inline;fill:#b37254;stroke:#000000;stroke-width:4.21569;stroke-dasharray:none"
       inkscape:label="eye"
       d="m 112.99727,68.385519 a 8.2072081,8.2072081 0 0 1 -8.2072,8.207208 8.2072081,8.2072081 0 0 1 -8.207214,-8.207208 8.2072081,8.2072081 0 0 1 8.207214,-8.207211 8.2072081,8.2072081 0 0 1 8.2072,8.207211 z" />
    <path
       id="path6"
       style="display:inline;fill:#9e5542;fill-opacity:1;stroke:#000000;stroke-width:4.21569;stroke-dasharray:none;stroke-opacity:1"
       inkscape:label="hair-bride"
       d="M 125.03005,6.2046135 C 92.566463,6.1672835 77.5424,27.052552 73.919183,38.80886 68.906939,50.504158 57.287234,144.78814 67.283751,152.19441 c 0,0 19.620388,23.86574 28.232704,15.60779 8.612295,-8.25796 -27.756373,-91.111876 0.531767,-118.846193 12.750038,-12.500412 41.095528,-11.96521 53.560628,0.819341 27.54443,28.250317 -9.57467,109.980752 -1.18427,118.362082 8.3904,8.38134 28.32404,-19.37562 28.32404,-19.37562 11.03823,-7.514 0.42108,-99.517559 -4.19265,-110.124147 C 167.96101,25.658232 157.41896,6.2038842 125.03005,6.2046135 Z"
       sodipodi:nodetypes="ccczaazccc" />
    <ellipse
       style="display:inline;fill:#89a66d;stroke:#000000;stroke-width:2.73598;stroke-linecap:square;stroke-linejoin:bevel;stroke-dasharray:none"
       id="path7"
       cx="30.895245"
       cy="83.346329"
       rx="4.7438002"
       ry="10.395987"
       transform="rotate(-52.967615)" />
    <ellipse
       style="display:inline;fill:#89a66d;stroke:#000000;stroke-width:2.58801;stroke-linecap:square;stroke-linejoin:bevel;stroke-dasharray:none"
       id="ellipse7"
       cx="-100.11871"
       cy="-3.4414616"
       rx="4.488431"
       ry="9.8363495"
       transform="matrix(-0.96000882,-0.27996975,-0.27996975,0.96000882,0,0)" />
    <ellipse
       style="display:inline;fill:#509950;stroke:#000000;stroke-width:2.75628;stroke-linecap:square;stroke-linejoin:bevel;stroke-dasharray:none"
       id="ellipse8"
       cx="-90.64138"
       cy="-137.49818"
       rx="4.7802811"
       ry="10.475936"
       transform="matrix(-0.41472236,-0.909948,-0.909948,0.41472236,0,0)" />
    <ellipse
       style="display:inline;fill:#89a66d;stroke:#000000;stroke-width:2.58801;stroke-linecap:square;stroke-linejoin:bevel;stroke-dasharray:none"
       id="ellipse9"
       cx="142.98256"
       cy="58.372276"
       rx="4.488431"
       ry="9.8363495"
       transform="rotate(-13.286853)" />
    <ellipse
       style="display:inline;fill:#fff8f0;fill-opacity:1;stroke:#000000;stroke-width:2.10784;stroke-dasharray:none;stroke-opacity:1;paint-order:normal"
       id="circle9"
       cx="156.38113"
       cy="30.250319"
       rx="6.0203013"
       ry="5.8647408" />
    <ellipse
       style="display:inline;fill:#fff8f0;fill-opacity:1;stroke:#000000;stroke-width:2.10784;stroke-dasharray:none;stroke-opacity:1;paint-order:normal"
       id="ellipse10"
       cx="145.02522"
       cy="26.361309"
       rx="6.0203013"
       ry="5.8647408" />
    <ellipse
       style="display:inline;fill:#fff8f0;fill-opacity:1;stroke:#000000;stroke-width:2.10784;stroke-dasharray:none;stroke-opacity:1;paint-order:normal"
       id="ellipse11"
       cx="133.66931"
       cy="23.716782"
       rx="6.0203013"
       ry="5.8647408" />
    <ellipse
       style="display:inline;fill:#fff8f0;fill-opacity:1;stroke:#000000;stroke-width:2.10784;stroke-dasharray:none;stroke-opacity:1;paint-order:normal"
       id="ellipse13"
       cx="-92.134674"
       cy="30.094761"
       rx="6.0203013"
       ry="5.8647408"
       transform="scale(-1,1)" />
    <ellipse
       style="display:inline;fill:#fff8f0;fill-opacity:1;stroke:#000000;stroke-width:2.10784;stroke-dasharray:none;stroke-opacity:1;paint-order:normal"
       id="ellipse14"
       cx="-103.49059"
       cy="26.205744"
       rx="6.0203013"
       ry="5.8647408"
       transform="scale(-1,1)" />
    <ellipse
       style="display:inline;fill:#fff8f0;fill-opacity:1;stroke:#000000;stroke-width:2.10784;stroke-dasharray:none;stroke-opacity:1;paint-order:normal"
       id="ellipse15"
       cx="-114.8465"
       cy="23.561216"
       rx="6.0203013"
       ry="5.8647408"
       transform="scale(-1,1)" />
    <ellipse
       style="display:inline;fill:#fff8f0;fill-opacity:1;stroke:#000000;stroke-width:2.10784;stroke-dasharray:none;stroke-opacity:1;paint-order:normal"
       id="ellipse12"
       cx="124.08485"
       cy="22.798025"
       rx="7.0439234"
       ry="6.8619127" />
  </g>
</svg>
