<?xml version="1.0" encoding="UTF-8" standalone="no"?>
<!-- Created with Inkscape (http://www.inkscape.org/) -->

<svg
   width="120"
   height="120"
   viewBox="0 0 120 120"
   version="1.1"
   id="svg1"
   inkscape:version="1.3 (0e150ed6c4, 2023-07-21)"
   sodipodi:docname="hair1_woman_black.svg"
   inkscape:export-filename="hair1_woman_brunette.svg"
   inkscape:export-xdpi="96"
   inkscape:export-ydpi="96"
   xmlns:inkscape="http://www.inkscape.org/namespaces/inkscape"
   xmlns:sodipodi="http://sodipodi.sourceforge.net/DTD/sodipodi-0.dtd"
   xmlns="http://www.w3.org/2000/svg"
   xmlns:svg="http://www.w3.org/2000/svg">
  <sodipodi:namedview
     id="namedview1"
     pagecolor="#ffffff"
     bordercolor="#000000"
     borderopacity="0.25"
     inkscape:showpageshadow="2"
     inkscape:pageopacity="0.0"
     inkscape:pagecheckerboard="0"
     inkscape:deskcolor="#d1d1d1"
     inkscape:document-units="px"
     inkscape:zoom="4.7906484"
     inkscape:cx="8.2452304"
     inkscape:cy="55.629213"
     inkscape:window-width="1920"
     inkscape:window-height="1009"
     inkscape:window-x="-8"
     inkscape:window-y="-8"
     inkscape:window-maximized="1"
     inkscape:current-layer="layer3"
     showguides="true"
     inkscape:export-bgcolor="#ffffff00" />
  <defs
     id="defs1">
    <linearGradient
       id="swatch2"
       inkscape:swatch="solid">
      <stop
         style="stop-color:#000000;stop-opacity:1;"
         offset="0"
         id="stop2" />
    </linearGradient>
  </defs>
  <g
     inkscape:groupmode="layer"
     id="layer3"
     inkscape:label="head"
     style="display:inline">
    <ellipse
       style="display:inline;fill:#3b3542;fill-opacity:1;stroke:#000000;stroke-width:2;stroke-dasharray:none;stroke-opacity:1"
       id="path26"
       ry="7.9321203"
       rx="12.602547"
       cy="9.4238701"
       cx="60.985722" />
    <path
       style="display:inline;fill:#3b3542;fill-opacity:1;stroke:#000000;stroke-width:1.82059;stroke-dasharray:none"
       d="m 61.188287,21.930714 c -0.424314,-0.06116 -5.660997,4.722115 -9.953108,6.29757 -1.294185,0.475042 -2.567724,0.992703 -3.990978,1.290108 -0.711627,0.148703 -1.45818,0.240502 -2.208442,0.236482 -0.750262,-0.004 -1.505037,-0.106207 -2.166757,-0.327403 -0.68422,-0.228716 -1.254802,-0.580323 -1.674143,-0.988572 -0.419341,-0.408248 -0.690999,-0.871907 -0.843581,-1.347675 -0.30517,-0.951533 -0.140078,-1.935677 0.07759,-2.896566 0.540925,-2.387906 1.411852,-4.767988 3.051782,-6.950749 1.639927,-2.182761 4.091605,-4.168704 7.339542,-5.468548 3.247938,-1.299844 7.510997,-1.860434 11.265807,-1.75487"
       id="path25"
       sodipodi:nodetypes="csssssssssc"
       inkscape:label="hair1" />
    <path
       style="display:inline;fill:#3b3542;fill-opacity:1;stroke:#000000;stroke-width:1.82059;stroke-dasharray:none"
       d="m 60.954129,21.930714 c 0.424314,-0.06116 5.660997,4.722115 9.953108,6.29757 1.294185,0.475042 2.567724,0.992703 3.990978,1.290108 0.711627,0.148703 1.45818,0.240502 2.208442,0.236482 0.750262,-0.004 1.505037,-0.106207 2.166757,-0.327403 0.68422,-0.228716 1.254802,-0.580323 1.674143,-0.988572 0.419341,-0.408248 0.690999,-0.871907 0.843581,-1.347675 0.30517,-0.951533 0.140078,-1.935677 -0.07759,-2.896566 C 81.172619,21.806752 80.301692,19.42667 78.661762,17.243909 77.021835,15.061148 74.570157,13.075205 71.32222,11.775361 68.074282,10.475517 63.811223,9.9149265 60.056413,10.020492"
       id="path27"
       sodipodi:nodetypes="csssssssssc"
       inkscape:label="hair1" />
  </g>
</svg>
