<?xml version="1.0" encoding="UTF-8" standalone="no"?>
<!-- Created with Inkscape (http://www.inkscape.org/) -->

<svg
   width="120"
   height="120"
   viewBox="0 0 120 120"
   version="1.1"
   id="svg1"
   inkscape:version="1.3 (0e150ed6c4, 2023-07-21)"
   sodipodi:docname="test.svg"
   inkscape:export-filename="hair1_brown.svg"
   inkscape:export-xdpi="96"
   inkscape:export-ydpi="96"
   xmlns:inkscape="http://www.inkscape.org/namespaces/inkscape"
   xmlns:sodipodi="http://sodipodi.sourceforge.net/DTD/sodipodi-0.dtd"
   xmlns="http://www.w3.org/2000/svg"
   xmlns:svg="http://www.w3.org/2000/svg">
  <sodipodi:namedview
     id="namedview1"
     pagecolor="#ffffff"
     bordercolor="#000000"
     borderopacity="0.25"
     inkscape:showpageshadow="2"
     inkscape:pageopacity="0.0"
     inkscape:pagecheckerboard="0"
     inkscape:deskcolor="#d1d1d1"
     inkscape:document-units="px"
     inkscape:zoom="6.775"
     inkscape:cx="37.416974"
     inkscape:cy="50.110701"
     inkscape:window-width="1920"
     inkscape:window-height="1009"
     inkscape:window-x="-8"
     inkscape:window-y="-8"
     inkscape:window-maximized="1"
     inkscape:current-layer="layer3"
     showguides="true" />
  <defs
     id="defs1">
    <linearGradient
       id="swatch2"
       inkscape:swatch="solid">
      <stop
         style="stop-color:#000000;stop-opacity:1;"
         offset="0"
         id="stop2" />
    </linearGradient>
  </defs>
  <g
     inkscape:groupmode="layer"
     id="layer3"
     inkscape:label="head"
     style="display:inline">
    <path
       style="display:inline;fill:#757785;fill-opacity:1;stroke:#000000;stroke-width:2;stroke-dasharray:none"
       d="M 78.441055,31.231225 C 76.520769,31.53825 74.509242,31.150331 72.7854,30.321886 71.061558,29.49343 69.611475,28.24434 68.431547,26.832736 66.071693,24.009529 64.779185,20.590034 63.058019,17.40785 61.908806,15.28312 60.544829,13.216655 59.944787,10.91253 59.685419,9.9165714 59.574275,8.8798101 59.728117,7.8659096 59.88196,6.8520091 60.310978,5.8603616 61.043575,5.083394 c 0.831365,-0.8817188 2.025461,-1.4515442 3.279,-1.6738981 1.253538,-0.2223563 2.562474,-0.1108381 3.786835,0.2196734 2.448723,0.6610264 4.510028,2.1471258 6.485886,3.6193312 2.17929,1.6237856 4.346595,3.2791765 6.212796,5.1986185 1.8662,1.91944 3.432802,4.124719 4.239419,6.579632 0.806616,2.454915 0.807882,5.177943 -0.332052,7.521012 -0.569969,1.171536 -1.419003,2.235078 -2.497952,3.058701 -1.078948,0.823621 -2.389075,1.402942 -3.776452,1.624761 z"
       id="path9"
       inkscape:label="hair11" />
    <path
       style="display:inline;fill:#757785;fill-opacity:1;stroke:#000000;stroke-width:1.985;stroke-dasharray:none"
       d="m 65.42685,16.331282 c -1.036034,1.72878 -3.873924,4.163992 -5.72499,5.384593 -3.702131,2.441197 -7.755736,4.77744 -11.897486,6.717285 -1.248847,0.584914 -2.47777,1.222307 -3.851165,1.588499 -0.686697,0.183096 -1.407097,0.296127 -2.131077,0.291176 -0.723978,-0.0049 -1.452313,-0.130771 -2.09085,-0.403126 -0.660251,-0.281617 -1.210843,-0.714547 -1.615494,-1.217221 -0.404653,-0.502673 -0.666792,-1.073574 -0.81403,-1.659381 -0.294477,-1.171615 -0.135169,-2.383384 0.07487,-3.566519 0.521975,-2.94021 1.362392,-5.870784 2.944871,-8.5584 1.582476,-2.687617 3.948268,-5.1328919 7.082424,-6.7333784 3.134156,-1.6004861 7.076314,-2.2907381 10.675077,-1.5363919 1.799382,0.3771731 5.39719,3.9266393 5.39719,3.9266393"
       id="path10"
       sodipodi:nodetypes="csssssssssssc"
       inkscape:label="hair1" />
  </g>
</svg>
