<?xml version="1.0" encoding="UTF-8" standalone="no"?>
<!-- Created with Inkscape (http://www.inkscape.org/) -->

<svg
   width="120"
   height="120"
   viewBox="0 0 120 120"
   version="1.1"
   id="svg1"
   inkscape:version="1.3 (0e150ed6c4, 2023-07-21)"
   sodipodi:docname="human-designs.svg"
   inkscape:export-filename="groom.png"
   inkscape:export-xdpi="96"
   inkscape:export-ydpi="96"
   xmlns:inkscape="http://www.inkscape.org/namespaces/inkscape"
   xmlns:sodipodi="http://sodipodi.sourceforge.net/DTD/sodipodi-0.dtd"
   xmlns="http://www.w3.org/2000/svg"
   xmlns:svg="http://www.w3.org/2000/svg">
  <sodipodi:namedview
     id="namedview1"
     pagecolor="#ffffff"
     bordercolor="#000000"
     borderopacity="0.25"
     inkscape:showpageshadow="2"
     inkscape:pageopacity="0.0"
     inkscape:pagecheckerboard="0"
     inkscape:deskcolor="#d1d1d1"
     inkscape:document-units="px"
     inkscape:zoom="4.7906484"
     inkscape:cx="35.590172"
     inkscape:cy="52.706853"
     inkscape:window-width="1920"
     inkscape:window-height="1009"
     inkscape:window-x="-8"
     inkscape:window-y="-8"
     inkscape:window-maximized="1"
     inkscape:current-layer="layer3"
     showguides="false"
     inkscape:export-bgcolor="#ffffff00" />
  <defs
     id="defs1">
    <inkscape:path-effect
       effect="bspline"
       id="path-effect15"
       is_visible="true"
       lpeversion="1.3"
       weight="33.333333"
       steps="2"
       helper_size="0"
       apply_no_weight="true"
       apply_with_weight="true"
       only_selected="false"
       uniform="false" />
    <inkscape:path-effect
       effect="spiro"
       id="path-effect34"
       is_visible="true"
       lpeversion="1" />
    <inkscape:path-effect
       effect="spiro"
       id="path-effect29"
       is_visible="true"
       lpeversion="1" />
    <inkscape:path-effect
       effect="spiro"
       id="path-effect11"
       is_visible="true"
       lpeversion="1" />
    <inkscape:path-effect
       effect="spiro"
       id="path-effect10"
       is_visible="true"
       lpeversion="1" />
    <inkscape:path-effect
       effect="spiro"
       id="path-effect9"
       is_visible="true"
       lpeversion="1" />
    <inkscape:path-effect
       effect="spiro"
       id="path-effect8"
       is_visible="true"
       lpeversion="1" />
    <linearGradient
       id="swatch2"
       inkscape:swatch="solid">
      <stop
         style="stop-color:#000000;stop-opacity:1;"
         offset="0"
         id="stop2" />
    </linearGradient>
    <inkscape:path-effect
       effect="spiro"
       id="path-effect2"
       is_visible="true"
       lpeversion="1" />
    <inkscape:path-effect
       effect="bspline"
       id="path-effect1"
       is_visible="true"
       lpeversion="1.3"
       weight="33.333333"
       steps="2"
       helper_size="0"
       apply_no_weight="true"
       apply_with_weight="true"
       only_selected="false"
       uniform="false" />
  </defs>
  <g
     inkscape:label="Layer 1"
     inkscape:groupmode="layer"
     id="layer1"
     style="display:none"
     transform="translate(-0.14760148,-9.5940959)">
    <path
       style="display:none;fill:#ea1b25;fill-opacity:1;fill-rule:nonzero;stroke:#000000;stroke-width:1.8;stroke-dasharray:none;stroke-opacity:1"
       d="M 50.627306,96.531365 C 51.264521,92.734573 47.528257,87.733021 33.034476,73.843025 18.540695,59.953029 16.099491,55.541155 15.350553,50.774907 c -0.838727,-5.337672 0.532434,-10.981909 3.696736,-15.361566 3.164302,-4.379657 8.077712,-7.449106 13.395034,-8.408421 5.317323,-0.959316 10.979809,0.193309 15.519236,3.123805 4.539427,2.930496 7.915154,7.6027 9.307814,12.823304 0.359427,1.347369 0.591186,2.770129 0.295203,4.132841 -0.237127,1.091738 -0.801683,2.090981 -1.040565,3.182336 -0.11944,0.545678 -0.154735,1.118481 -0.02212,1.661108 0.132615,0.542626 0.445383,1.053475 0.915084,1.355818 0.347121,0.223439 0.769069,0.324954 1.180812,0.295203 0.47502,-0.03432 0.928635,-0.239003 1.302233,-0.534377 0.373598,-0.295375 0.671173,-0.678233 0.911789,-1.089239 0.474322,-0.810209 0.733978,-1.730312 0.885609,-2.656826 0.159764,-0.976209 0.20444,-1.967007 0.295203,-2.95203 0.641969,-6.967124 3.727354,-13.756337 8.851814,-18.520037 5.124461,-4.763701 12.300024,-7.366003 19.252784,-6.583653 3.476379,0.391174 6.863934,1.604538 9.767575,3.555714 2.903646,1.951175 5.314786,4.64099 6.889026,7.765094 1.57423,3.124105 2.3021,6.677525 2.02827,10.165111 -0.27383,3.487585 -1.55542,6.897701 -3.68984,9.669432 -1.44566,1.877324 -3.25019,3.441252 -5.01845,5.01845 -14.958633,13.342357 -30.069155,26.42621 -46.494463,37.785978 -0.280176,0.19377 -0.63009,0.286328 -0.882943,0.514605 -0.249147,0.224932 -0.474883,0.499643 -0.593072,0.813808 -0.115676,0.307484 -0.02681,0.658904 -0.08846,0.981591 -0.03069,0.160626 -0.05115,0.332619 -0.139182,0.470434 -0.0867,0.135739 -0.207173,0.265371 -0.362767,0.319193 -0.095,0.03286 -0.198501,0.03947 -0.468744,-0.08391 -0.270244,-0.123379 -0.384636,-0.301938 -0.445332,-0.493607 -0.0607,-0.191668 -0.07082,-0.396311 -0.05669,-0.596863 0.01413,-0.200552 0.05188,-0.398563 0.08516,-0.596839 z"
       id="path2"
       sodipodi:nodetypes="scsssssssssssssssssssssaaaaascssss" />
  </g>
  <g
     inkscape:groupmode="layer"
     id="layer2"
     inkscape:label="body"
     style="display:inline">
    <path
       id="path1"
       style="display:inline;fill:#180a24;fill-opacity:1;stroke:#000000;stroke-width:2;stroke-dasharray:none"
       d="m 45.74833,114.74168 h 29.209406 c 15.380111,0 20.296702,-7.9468 20.031822,-23.120476 L 94.7418,77.428156 C 94.476924,62.254488 82.748746,51.824742 67.368636,51.824742 h -12.94487 c -15.380112,0 -29.718955,10.429746 -29.454077,25.603414 l 0.247758,14.193048 c 0.264879,15.173676 5.150772,23.120476 20.530883,23.120476 z"
       sodipodi:nodetypes="sssssssss"
       inkscape:label="body-man" />
    <path
       style="display:inline;fill:#fff8f0;fill-opacity:1;stroke:#000000;stroke-width:2;stroke-dasharray:none;stroke-opacity:1"
       d="M 60.938056,81.551848 71.735072,52.974717 49.855719,53.496648 60.216182,81.552157 Z"
       id="path12"
       sodipodi:nodetypes="ccccc" />
    <rect
       style="display:inline;fill:#fff8f0;fill-opacity:1;stroke:#000000;stroke-width:1.702;stroke-dasharray:none;stroke-opacity:1"
       id="rect13"
       width="10.180161"
       height="4.335443"
       x="72.822128"
       y="68.125473" />
    <path
       style="display:inline;fill:none;fill-opacity:1;stroke:#000000;stroke-width:1.98638;stroke-dasharray:none;stroke-opacity:1"
       d="m 66.189268,62.633841 -5.449273,-4.294988 -5.747382,4.349368"
       id="path16"
       sodipodi:nodetypes="ccc" />
    <path
       id="path28"
       style="display:none;fill:#180a24;fill-opacity:1;stroke:#000000;stroke-width:2;stroke-dasharray:none"
       d="m 45.74833,114.74168 h 29.209406 c 15.380111,0 28.806784,-10.73861 20.031822,-23.120476 L 84.93102,77.428156 C 76.156061,65.046296 82.748746,51.824742 67.368636,51.824742 h -12.94487 c -15.380112,0 -8.882151,13.11318 -18.077747,25.185934 L 25.217447,91.621204 c -9.195604,12.072766 5.150772,23.120476 20.530883,23.120476 z"
       sodipodi:nodetypes="sssssssss"
       inkscape:label="body-woman" />
    <path
       style="display:none;fill:#94357b;fill-opacity:1;stroke:#000000;stroke-width:2;stroke-dasharray:none;stroke-opacity:1;paint-order:normal"
       d="m 31.586716,75.424354 h 58.00738"
       id="path34" />
    <path
       style="display:none;fill:#94357b;fill-opacity:1;stroke:#000000;stroke-width:2;stroke-dasharray:none;stroke-opacity:1;paint-order:normal"
       d="m 77.04797,75.867159 6.199262,9.298893"
       id="path35" />
    <path
       style="display:none;fill:#94357b;fill-opacity:1;stroke:#000000;stroke-width:2;stroke-dasharray:none;stroke-opacity:1;paint-order:normal"
       d="m 77.933579,75.793358 -5.463003,9.4622"
       id="path36" />
    <circle
       style="display:none;fill:#701664;fill-opacity:1;stroke:#000000;stroke-width:1.43649;stroke-dasharray:none;stroke-opacity:1;paint-order:normal"
       id="path38"
       cx="60.294579"
       cy="61.076786"
       r="5.0356507" />
    <circle
       style="display:none;fill:#fff8f0;fill-opacity:1;stroke:#000000;stroke-width:0.912941;stroke-dasharray:none;stroke-opacity:1;paint-order:normal"
       id="circle38"
       cx="52.915131"
       cy="57.712181"
       r="3.2003548" />
    <circle
       style="display:none;fill:#d6a9a9;fill-opacity:1;stroke:#000000;stroke-width:1.0161;stroke-dasharray:none;stroke-opacity:1;paint-order:normal"
       id="circle39"
       cx="52.368088"
       cy="58.571526"
       r="3.5619769" />
    <circle
       style="display:none;fill:#d6a9a9;fill-opacity:1;stroke:#000000;stroke-width:1.0161;stroke-dasharray:none;stroke-opacity:1;paint-order:normal"
       id="circle40"
       cx="68.385353"
       cy="58.571526"
       r="3.5619769" />
    <circle
       style="display:none;fill:#b05674;fill-opacity:1;stroke:#000000;stroke-width:0.862299;stroke-dasharray:none;stroke-opacity:1;paint-order:normal"
       id="circle41"
       cx="73.929787"
       cy="55.737698"
       r="3.0228279" />
    <circle
       style="display:none;fill:#b05674;fill-opacity:1;stroke:#000000;stroke-width:0.77002;stroke-dasharray:none;stroke-opacity:1;paint-order:normal"
       id="circle42"
       cx="47.029003"
       cy="56.107327"
       r="2.6993382" />
    <path
       style="display:none;fill:none;stroke:#000000;stroke-width:2.34264;stroke-linecap:square;stroke-linejoin:bevel;stroke-dasharray:none"
       d="m 39.429181,66.722126 c 6.88154,6.787582 13.76308,13.575164 20.560677,13.568392 6.797597,-0.0068 13.511252,-6.8079 20.224906,-13.609026"
       id="path15"
       inkscape:path-effect="#path-effect15"
       inkscape:original-d="m 39.429181,66.722126 c 0,0 13.76308,13.575164 20.64462,20.362746 6.713654,-6.801127 13.427309,-13.602254 20.140963,-20.40338"
       sodipodi:nodetypes="ccc"
       transform="matrix(0.70213726,0,0,1.038068,18.601731,-14.751934)" />
  </g>
  <g
     inkscape:groupmode="layer"
     id="layer3"
     inkscape:label="head"
     style="display:inline">
    <path
       id="rect7"
       style="display:inline;fill:#e6ad87;stroke:#000000;stroke-width:2;stroke-dasharray:none"
       d="m 54.166972,16.579719 h 13.177069 c 9.037728,0 13.994217,4.778287 13.838568,13.901979 l -0.14559,8.534059 C 80.881371,48.139448 71.922229,57.51209 62.884502,57.51209 h -4.932201 c -9.037731,0 -18.070723,-9.372642 -17.915075,-18.496333 l 0.145589,-8.534059 c 0.15565,-9.123692 4.946429,-13.901979 13.984157,-13.901979 z"
       sodipodi:nodetypes="sssssssss"
       inkscape:label="face1" />
    <path
       id="path13"
       style="display:none;fill:#e6ad87;stroke:#000000;stroke-width:2;stroke-dasharray:none"
       d="m 54.177448,16.61317 h 13.155646 c 9.023035,0 16.357172,5.446939 13.81607,14.871787 l -2.545863,9.442508 C 76.0622,50.352311 68.998794,56.84976 61.002145,60.400999 c -0.387273,0.171984 -0.885686,0.175821 -1.271232,0 C 51.699124,56.738266 44.654747,49.895098 42.366814,40.405615 L 40.216026,31.484957 C 37.928093,21.995472 45.154413,16.61317 54.177448,16.61317 Z"
       sodipodi:nodetypes="ssssaasss"
       inkscape:label="face2" />
    <path
       id="path26"
       style="display:none;fill:#94357b;fill-opacity:1;stroke:#000000;stroke-width:2;stroke-dasharray:none;stroke-opacity:1"
       inkscape:label="bobhair"
       d="M 61.037109,1.2067262 C 45.213294,1.2071691 32.385616,11.353889 32.384766,23.870789 c 0.01788,5.688151 2.738945,15.812487 7.623046,19.987337 l 0.05859,-4.062414 c 0.156542,-7.05923 4.974962,-13.993283 14.064453,-13.993283 h 13.251953 c 9.089492,0 14.052184,6.724853 13.917969,13.784543 l -0.07422,3.903959 C 86.619617,39.255364 89.664538,29.882303 89.691406,23.870789 89.690555,11.353285 76.861687,1.2063155 61.037109,1.2067262 Z"
       sodipodi:nodetypes="ccccsssccc" />
    <path
       style="display:inline;fill:#ebd2a7;fill-opacity:1;stroke:#000000;stroke-width:2;stroke-dasharray:none"
       d="M 78.441055,31.231225 C 76.520769,31.53825 74.509242,31.150331 72.7854,30.321886 71.061558,29.49343 69.611475,28.24434 68.431547,26.832736 66.071693,24.009529 64.779185,20.590034 63.058019,17.40785 61.908806,15.28312 60.544829,13.216655 59.944787,10.91253 59.685419,9.9165714 59.574275,8.8798101 59.728117,7.8659096 59.88196,6.8520091 60.310978,5.8603616 61.043575,5.083394 c 0.831365,-0.8817188 2.025461,-1.4515442 3.279,-1.6738981 1.253538,-0.2223563 2.562474,-0.1108381 3.786835,0.2196734 2.448723,0.6610264 4.510028,2.1471258 6.485886,3.6193312 2.17929,1.6237856 4.346595,3.2791765 6.212796,5.1986185 1.8662,1.91944 3.432802,4.124719 4.239419,6.579632 0.806616,2.454915 0.807882,5.177943 -0.332052,7.521012 -0.569969,1.171536 -1.419003,2.235078 -2.497952,3.058701 -1.078948,0.823621 -2.389075,1.402942 -3.776452,1.624761 z"
       id="path9"
       inkscape:label="hair11" />
    <path
       style="display:inline;fill:#ebd2a7;fill-opacity:1;stroke:#000000;stroke-width:1.985;stroke-dasharray:none"
       d="m 65.42685,16.331282 c -1.036034,1.72878 -3.873924,4.163992 -5.72499,5.384593 -3.702131,2.441197 -7.755736,4.77744 -11.897486,6.717285 -1.248847,0.584914 -2.47777,1.222307 -3.851165,1.588499 -0.686697,0.183096 -1.407097,0.296127 -2.131077,0.291176 -0.723978,-0.0049 -1.452313,-0.130771 -2.09085,-0.403126 -0.660251,-0.281617 -1.210843,-0.714547 -1.615494,-1.217221 -0.404653,-0.502673 -0.666792,-1.073574 -0.81403,-1.659381 -0.294477,-1.171615 -0.135169,-2.383384 0.07487,-3.566519 0.521975,-2.94021 1.362392,-5.870784 2.944871,-8.5584 1.582476,-2.687617 3.948268,-5.1328919 7.082424,-6.7333784 3.134156,-1.6004861 7.076314,-2.2907381 10.675077,-1.5363919 1.799382,0.3771731 5.39719,3.9266393 5.39719,3.9266393"
       id="path10"
       sodipodi:nodetypes="csssssssssssc"
       inkscape:label="hair1" />
    <path
       id="path3"
       style="display:inline;fill:#4b798f;stroke:#000000;stroke-width:2;stroke-dasharray:none"
       inkscape:label="eye"
       d="M 73.82115,35.82739 A 3.8936493,3.8936493 0 0 1 69.9275,39.721039 3.8936493,3.8936493 0 0 1 66.033851,35.82739 3.8936493,3.8936493 0 0 1 69.9275,31.933739 3.8936493,3.8936493 0 0 1 73.82115,35.82739 Z" />
    <path
       id="path11"
       style="display:inline;fill:#4b798f;stroke:#000000;stroke-width:2;stroke-dasharray:none"
       inkscape:label="eye"
       d="M 56.055899,35.82739 A 3.8936493,3.8936493 0 0 1 52.16225,39.721039 3.8936493,3.8936493 0 0 1 48.2686,35.82739 3.8936493,3.8936493 0 0 1 52.16225,31.933739 3.8936493,3.8936493 0 0 1 56.055899,35.82739 Z" />
    <path
       id="path19"
       style="display:inline;fill:none;stroke:#000000;stroke-width:2.07335;stroke-dasharray:none;stroke-opacity:1"
       inkscape:label="glasses"
       d="m 79.601917,36.261841 c 0,4.029455 -4.519046,7.295972 -8.23507,7.295972 -8.36547,0 -8.131164,-3.481226 -8.131165,-7.295972 -10e-7,-3.814747 -0.972315,-7.295976 8.131165,-7.295976 3.716025,0 8.235072,3.26652 8.23507,7.295976 z"
       sodipodi:nodetypes="ssass" />
    <path
       id="path20"
       style="display:inline;fill:none;stroke:#000000;stroke-width:2.07347;stroke-dasharray:none;stroke-opacity:1"
       inkscape:label="glasses"
       d="m 58.903215,36.209656 c 0,4.02942 0.829426,7.295909 -8.495939,7.295909 -3.716508,0 -8.39202,-3.26649 -8.39202,-7.295909 -2e-6,-4.029421 4.675922,-7.240597 8.39202,-7.295913 9.915772,-0.147601 8.495941,3.266492 8.495939,7.295913 z"
       sodipodi:nodetypes="sssss" />
    <path
       style="display:inline;fill:none;fill-opacity:1;stroke:#000000;stroke-width:2;stroke-dasharray:none;stroke-opacity:1"
       d="m 58.916868,35.711512 h 4.48791 v 0 0"
       id="path21" />
    <path
       style="display:none;fill:#ebd2a7;fill-opacity:1;stroke:#000000;stroke-width:2.00515;stroke-dasharray:none"
       d="M 86.292101,61.818066 C 84.176966,62.098244 80.446613,60.538483 79.361504,58.95702 75.488793,53.312842 70.79572,30.209186 69.950488,28.294942 68.526795,25.070625 65.927526,22.598117 64.031716,19.69419 c -1.265822,-1.938938 -2.7682,-3.898362 -3.429128,-6.00101 -0.285686,-0.908868 -0.408107,-1.854973 -0.238655,-2.780216 0.169453,-0.9252422 0.642003,-1.8301777 1.448935,-2.5392053 0.915723,-0.8046192 2.230983,-1.3246178 3.611716,-1.5275284 1.380733,-0.202913 2.822485,-0.1011462 4.17108,0.2004645 2.697192,0.6032248 4.967655,1.959376 7.144,3.3028482 2.400419,1.481798 3.397889,2.260653 5.378483,4.079602 2.468672,2.267191 3.700979,5.591067 4.373323,7.890371 0.80584,2.755842 4.163926,28.67727 4.061915,31.441997 -0.0635,1.720993 -0.315354,6.291005 -1.503782,7.042608 -1.188428,0.751602 -1.22935,0.811523 -2.757502,1.013945 z"
       id="path22"
       inkscape:label="hair11"
       sodipodi:nodetypes="sssssssssssssss" />
    <path
       style="display:none;fill:#ebd2a7;fill-opacity:1;stroke:#000000;stroke-width:2.06666;stroke-dasharray:none"
       d="m 34.801962,62.482076 c 2.24941,0.279864 6.216577,-1.278153 7.370572,-2.857848 4.118563,-5.637868 9.109566,-28.715695 10.008457,-30.627799 1.514073,-3.220712 4.278351,-5.690456 6.294513,-8.591136 1.346181,-1.936771 2.943934,-3.894005 3.64682,-5.994301 0.303821,-0.907853 0.434015,-1.8529 0.253806,-2.777109 C 62.195919,10.709675 61.69337,9.8057515 60.835211,9.0975165 59.861356,8.2937968 58.462599,7.7743796 56.994213,7.5716958 55.525827,7.3690097 53.992548,7.4706627 52.558339,7.7719363 c -2.868417,0.6025503 -5.283016,1.9571854 -7.597523,3.2991557 -2.552804,1.480141 -3.613597,2.258126 -5.719925,4.075041 -2.62539,2.264656 -3.935928,5.584817 -4.650954,7.88155 -0.856998,2.752762 -4.428265,28.645211 -4.319779,31.406847 0.06753,1.719068 0.335374,6.283971 1.599248,7.034734 1.263872,0.750762 1.307392,0.810616 2.932556,1.012812 z"
       id="path23"
       inkscape:label="hair11"
       sodipodi:nodetypes="sssssssssssssss" />
    <path
       style="display:none;fill:#263973;fill-opacity:1;stroke:#000000;stroke-width:1.82059;stroke-dasharray:none"
       d="m 61.188287,21.930714 c -0.424314,-0.06116 -5.660997,4.722115 -9.953108,6.29757 -1.294185,0.475042 -2.567724,0.992703 -3.990978,1.290108 -0.711627,0.148703 -1.45818,0.240502 -2.208442,0.236482 -0.750262,-0.004 -1.505037,-0.106207 -2.166757,-0.327403 -0.68422,-0.228716 -1.254802,-0.580323 -1.674143,-0.988572 -0.419341,-0.408248 -0.690999,-0.871907 -0.843581,-1.347675 -0.30517,-0.951533 -0.140078,-1.935677 0.07759,-2.896566 0.540925,-2.387906 1.411852,-4.767988 3.051782,-6.950749 1.639927,-2.182761 4.091605,-4.168704 7.339542,-5.468548 3.247938,-1.299844 7.510997,-1.860434 11.265807,-1.75487"
       id="path25"
       sodipodi:nodetypes="csssssssssc"
       inkscape:label="hair1" />
    <path
       style="display:none;fill:#263973;fill-opacity:1;stroke:#000000;stroke-width:1.82059;stroke-dasharray:none"
       d="m 60.954129,21.930714 c 0.424314,-0.06116 5.660997,4.722115 9.953108,6.29757 1.294185,0.475042 2.567724,0.992703 3.990978,1.290108 0.711627,0.148703 1.45818,0.240502 2.208442,0.236482 0.750262,-0.004 1.505037,-0.106207 2.166757,-0.327403 0.68422,-0.228716 1.254802,-0.580323 1.674143,-0.988572 0.419341,-0.408248 0.690999,-0.871907 0.843581,-1.347675 0.30517,-0.951533 0.140078,-1.935677 -0.07759,-2.896566 C 81.172619,21.806752 80.301692,19.42667 78.661762,17.243909 77.021835,15.061148 74.570157,13.075205 71.32222,11.775361 68.074282,10.475517 63.811223,9.9149265 60.056413,10.020492"
       id="path27"
       sodipodi:nodetypes="csssssssssc"
       inkscape:label="hair1" />
    <ellipse
       style="display:none;fill:#263973;fill-opacity:1;stroke:#000000;stroke-width:2;stroke-dasharray:none;stroke-opacity:1"
       id="ellipse1"
       ry="7.9321203"
       rx="12.602547"
       cy="9.4238701"
       cx="60.985722"
       inkscape:label="bun" />
    <path
       id="path4"
       style="display:none;fill:#180a24;fill-opacity:1;stroke:#000000;stroke-width:1.80802;stroke-dasharray:none;stroke-opacity:1"
       inkscape:label="hair long"
       d="M 61.764471,6.3276326 C 46.36315,6.3099187 39.235462,16.218276 37.516544,21.795683 c -2.377905,5.548463 -3.31486,39.980638 1.427672,43.494307 l 3.135805,2.312358 c 4.78331,3.527237 -0.06973,-47.288135 8.544192,-45.364829 l 21.789932,4.865231 c 8.613921,1.923306 1.023904,44.274371 5.740517,40.658643 l 3.422789,-2.62389 C 86.814189,61.572735 86.500467,26.746423 84.311633,21.714464 82.131698,15.556785 77.130361,6.3272869 61.764471,6.3276326 Z"
       sodipodi:nodetypes="cccssssccc" />
    <path
       id="path5"
       style="display:none;fill:#263973;fill-opacity:1;stroke:#000000;stroke-width:1.80802;stroke-dasharray:none;stroke-opacity:1"
       inkscape:label="hair-short"
       d="M 61.764471,6.3276326 C 46.36315,6.3099187 39.235462,16.218276 37.516544,21.795683 c -2.377905,5.548463 -5.381281,27.286911 -0.638749,30.80058 0,0 6.024201,1.854664 7.932853,0.02454 6.263012,-6.005332 -7.812754,-26.124555 1.012545,-26.011128 l 30.243902,0.38871 c 8.825298,0.113427 -6.184285,19.707949 -0.104203,25.781463 1.881045,1.879012 7.976183,-0.04086 7.976183,-0.04086 5.236738,-3.564777 2.561392,-25.992565 0.372558,-31.024524 C 82.131698,15.556785 77.130361,6.3272869 61.764471,6.3276326 Z"
       sodipodi:nodetypes="cccassaccc" />
    <path
       id="path6"
       style="display:none;fill:#9e5542;fill-opacity:1;stroke:#000000;stroke-width:2;stroke-dasharray:none;stroke-opacity:1"
       inkscape:label="hair-bride"
       d="M 61.764471,6.3276326 C 46.36315,6.3099187 39.235462,16.218276 37.516544,21.795683 c -2.377905,5.548463 -7.890506,50.278509 -3.147974,53.792178 0,0 9.308276,11.322342 13.394108,7.404614 4.085832,-3.917728 -13.168123,-43.225134 0.252285,-56.3828 6.048847,-5.930424 19.496466,-5.676514 25.41014,0.38871 13.067583,13.402466 -4.542406,52.176872 -0.561842,56.153135 3.980564,3.976263 13.437438,-9.192152 13.437438,-9.192152 C 91.537437,70.394591 86.500467,26.746423 84.311633,21.714464 82.131698,15.556785 77.130361,6.3272869 61.764471,6.3276326 Z"
       sodipodi:nodetypes="ccczaazccc" />
    <ellipse
       style="display:none;fill:#89a66d;stroke:#000000;stroke-width:1.298;stroke-linecap:square;stroke-linejoin:bevel;stroke-dasharray:none"
       id="path7"
       cx="13.430105"
       cy="43.533287"
       rx="2.2505453"
       ry="4.9320459"
       transform="rotate(-52.967615)" />
    <ellipse
       style="display:none;fill:#89a66d;stroke:#000000;stroke-width:1.2278;stroke-linecap:square;stroke-linejoin:bevel;stroke-dasharray:none"
       id="ellipse7"
       cx="-50.795609"
       cy="0.93067938"
       rx="2.1293936"
       ry="4.6665435"
       transform="matrix(-0.96000882,-0.27996975,-0.27996975,0.96000882,0,0)" />
    <ellipse
       style="display:none;fill:#509950;stroke:#000000;stroke-width:1.30763;stroke-linecap:square;stroke-linejoin:bevel;stroke-dasharray:none"
       id="ellipse8"
       cx="-47.096451"
       cy="-66.05571"
       rx="2.2678525"
       ry="4.969975"
       transform="matrix(-0.41472236,-0.909948,-0.909948,0.41472236,0,0)" />
    <ellipse
       style="display:none;fill:#89a66d;stroke:#000000;stroke-width:1.2278;stroke-linecap:square;stroke-linejoin:bevel;stroke-dasharray:none"
       id="ellipse9"
       cx="69.438202"
       cy="31.548937"
       rx="2.1293936"
       ry="4.6665435"
       transform="rotate(-13.286853)" />
    <ellipse
       style="display:none;fill:#fff8f0;fill-opacity:1;stroke:#000000;stroke-width:1;stroke-dasharray:none;stroke-opacity:1;paint-order:normal"
       id="circle9"
       cx="76.638"
       cy="17.735355"
       rx="2.8561409"
       ry="2.78234" />
    <ellipse
       style="display:none;fill:#fff8f0;fill-opacity:1;stroke:#000000;stroke-width:1;stroke-dasharray:none;stroke-opacity:1;paint-order:normal"
       id="ellipse10"
       cx="71.250549"
       cy="15.890337"
       rx="2.8561409"
       ry="2.78234" />
    <ellipse
       style="display:none;fill:#fff8f0;fill-opacity:1;stroke:#000000;stroke-width:1;stroke-dasharray:none;stroke-opacity:1;paint-order:normal"
       id="ellipse11"
       cx="65.863098"
       cy="14.635724"
       rx="2.8561409"
       ry="2.78234" />
    <ellipse
       style="display:none;fill:#fff8f0;fill-opacity:1;stroke:#000000;stroke-width:1;stroke-dasharray:none;stroke-opacity:1;paint-order:normal"
       id="ellipse13"
       cx="-46.158302"
       cy="17.661554"
       rx="2.8561409"
       ry="2.78234"
       transform="scale(-1,1)" />
    <ellipse
       style="display:none;fill:#fff8f0;fill-opacity:1;stroke:#000000;stroke-width:1;stroke-dasharray:none;stroke-opacity:1;paint-order:normal"
       id="ellipse14"
       cx="-51.545753"
       cy="15.816536"
       rx="2.8561409"
       ry="2.78234"
       transform="scale(-1,1)" />
    <ellipse
       style="display:none;fill:#fff8f0;fill-opacity:1;stroke:#000000;stroke-width:1;stroke-dasharray:none;stroke-opacity:1;paint-order:normal"
       id="ellipse15"
       cx="-56.933205"
       cy="14.561923"
       rx="2.8561409"
       ry="2.78234"
       transform="scale(-1,1)" />
    <ellipse
       style="display:none;fill:#fff8f0;fill-opacity:1;stroke:#000000;stroke-width:1;stroke-dasharray:none;stroke-opacity:1;paint-order:normal"
       id="ellipse12"
       cx="61.316044"
       cy="14.19985"
       rx="3.3417659"
       ry="3.2554166" />
  </g>
</svg>
