<?xml version="1.0" encoding="UTF-8" standalone="no"?>
<!-- Created with Inkscape (http://www.inkscape.org/) -->

<svg
   width="512"
   height="512"
   viewBox="0 0 512 512"
   version="1.1"
   id="svg1"
   inkscape:version="1.3 (0e150ed6c4, 2023-07-21)"
   sodipodi:docname="tutorial.svg"
   inkscape:export-filename="tutorial.png"
   inkscape:export-xdpi="96"
   inkscape:export-ydpi="96"
   xmlns:inkscape="http://www.inkscape.org/namespaces/inkscape"
   xmlns:sodipodi="http://sodipodi.sourceforge.net/DTD/sodipodi-0.dtd"
   xmlns="http://www.w3.org/2000/svg"
   xmlns:svg="http://www.w3.org/2000/svg">
  <sodipodi:namedview
     id="namedview1"
     pagecolor="#ffffff"
     bordercolor="#000000"
     borderopacity="0.25"
     inkscape:showpageshadow="2"
     inkscape:pageopacity="0.0"
     inkscape:pagecheckerboard="0"
     inkscape:deskcolor="#d1d1d1"
     inkscape:document-units="px"
     inkscape:zoom="1.1228082"
     inkscape:cx="186.58574"
     inkscape:cy="270.3044"
     inkscape:window-width="1920"
     inkscape:window-height="1009"
     inkscape:window-x="-8"
     inkscape:window-y="-8"
     inkscape:window-maximized="1"
     inkscape:current-layer="layer2" />
  <defs
     id="defs1" />
  <g
     inkscape:label="Layer 1"
     inkscape:groupmode="layer"
     id="layer1">
    <g
       inkscape:groupmode="layer"
       id="layer2"
       inkscape:label="notebook "
       transform="translate(-1477.1532,-17.222736)"
       style="display:inline">
      <rect
         style="fill:#3b3542;fill-opacity:1;stroke:#000000;stroke-width:4.99326;stroke-linecap:square;stroke-linejoin:bevel;stroke-dasharray:none;stroke-opacity:1;paint-order:normal"
         id="rect13"
         width="461.29303"
         height="470.52866"
         x="1509.3352"
         y="37.593658"
         rx="29.229605" />
      <path
         id="path3"
         style="display:inline;fill:#94357b;stroke:#000000;stroke-width:5;stroke-linecap:square;stroke-linejoin:bevel;stroke-dasharray:none"
         d="m 1961.6162,399.24064 v 50.04818 c 0,13.26177 -10.0468,17.92526 -19.8468,23.93822 l -18.2425,11.19297 c -9.8,6.01296 -19.8468,-10.67645 -19.8468,-23.93822 v -69.76913 c 0,-13.26177 9.5947,-28.73083 19.8468,-23.93822 l 18.2425,8.52798 c 10.2521,4.79262 19.8468,10.67645 19.8468,23.93822 z"
         sodipodi:nodetypes="sssssssss" />
      <path
         id="path4"
         style="display:inline;fill:#d97368;stroke:#000000;stroke-width:5;stroke-linecap:square;stroke-linejoin:bevel;stroke-dasharray:none"
         d="m 1961.6162,292.33289 v 50.04818 c 0,13.26177 -10.0468,17.92526 -19.8468,23.93822 l -18.2425,11.19297 c -9.8,6.01296 -19.8468,-10.67645 -19.8468,-23.93822 v -69.76913 c 0,-13.26177 9.5947,-28.73083 19.8468,-23.93822 l 18.2425,8.52798 c 10.2521,4.79262 19.8468,10.67645 19.8468,23.93822 z"
         sodipodi:nodetypes="sssssssss" />
      <path
         id="rect46"
         style="display:inline;fill:#509950;stroke:#000000;stroke-width:5;stroke-linecap:square;stroke-linejoin:bevel;stroke-dasharray:none"
         d="m 1961.6162,93.693291 v 50.048179 c 0,13.26177 -10.0468,17.92526 -19.8468,23.93822 l -18.2425,11.19297 c -9.8,6.01296 -19.8468,-10.67645 -19.8468,-23.93822 V 85.16531 c 0,-13.261774 9.5947,-28.730835 19.8468,-23.93822 l 18.2425,8.527981 c 10.2521,4.792615 19.8468,10.676446 19.8468,23.93822 z"
         sodipodi:nodetypes="sssssssss" />
      <path
         id="path1"
         style="display:inline;fill:#ebd2a7;stroke:#000000;stroke-width:5;stroke-linecap:square;stroke-linejoin:bevel;stroke-dasharray:none"
         d="m 1537.6376,45.06258 c -14.3544,0 -25.9102,11.555803 -25.9102,25.910156 V 473.22078 c 0,14.35436 11.5558,25.91016 25.9102,25.91016 h 357.0898 c 14.3544,0 25.9102,-11.5558 25.9102,-25.91016 V 275.25399 c 0.959,-0.177 1.9246,-0.54327 2.8886,-1.13477 l 18.2422,-11.19141 c 9.8,-6.01295 19.8477,-10.67769 19.8477,-23.93945 v -50.04687 c 0,-13.26176 -9.5956,-19.14684 -19.8477,-23.93946 l -18.2422,-8.52734 c -0.9718,-0.4543 -1.9362,-0.72467 -2.8886,-0.83399 V 70.972736 c 0,-14.354353 -11.5558,-25.910156 -25.9102,-25.910156 z" />
      <circle
         style="fill:#565466;fill-opacity:1;stroke:#000000;stroke-width:3.34395;stroke-linecap:square;stroke-linejoin:bevel;stroke-dasharray:none;stroke-opacity:1;paint-order:normal"
         id="path13"
         cx="1531.7848"
         cy="-73.695419"
         transform="scale(1,-1)"
         r="10.811836" />
      <ellipse
         style="fill:#3b3542;fill-opacity:1;stroke:#000000;stroke-width:8.10605;stroke-linecap:square;stroke-linejoin:bevel;stroke-dasharray:none;stroke-opacity:1;paint-order:normal"
         id="path16"
         cx="1512.9369"
         cy="73.402679"
         rx="18.773481"
         ry="1.6559293" />
      <circle
         style="fill:#565466;fill-opacity:1;stroke:#000000;stroke-width:3.34395;stroke-linecap:square;stroke-linejoin:bevel;stroke-dasharray:none;stroke-opacity:1;paint-order:normal"
         id="circle4"
         cx="1531.7848"
         cy="-139.60159"
         transform="scale(1,-1)"
         r="10.811836" />
      <ellipse
         style="fill:#3b3542;fill-opacity:1;stroke:#000000;stroke-width:8.10605;stroke-linecap:square;stroke-linejoin:bevel;stroke-dasharray:none;stroke-opacity:1;paint-order:normal"
         id="ellipse4"
         cx="1512.9369"
         cy="139.30885"
         rx="18.773481"
         ry="1.6559293" />
      <circle
         style="fill:#565466;fill-opacity:1;stroke:#000000;stroke-width:3.34395;stroke-linecap:square;stroke-linejoin:bevel;stroke-dasharray:none;stroke-opacity:1;paint-order:normal"
         id="circle5"
         cx="1531.7848"
         cy="-201.94528"
         transform="scale(1,-1)"
         r="10.811836" />
      <ellipse
         style="fill:#3b3542;fill-opacity:1;stroke:#000000;stroke-width:8.10605;stroke-linecap:square;stroke-linejoin:bevel;stroke-dasharray:none;stroke-opacity:1;paint-order:normal"
         id="ellipse5"
         cx="1512.9369"
         cy="201.65254"
         rx="18.773481"
         ry="1.6559293" />
      <circle
         style="fill:#565466;fill-opacity:1;stroke:#000000;stroke-width:3.34395;stroke-linecap:square;stroke-linejoin:bevel;stroke-dasharray:none;stroke-opacity:1;paint-order:normal"
         id="circle6"
         cx="1531.7848"
         cy="-268.29678"
         transform="scale(1,-1)"
         r="10.811836" />
      <ellipse
         style="fill:#3b3542;fill-opacity:1;stroke:#000000;stroke-width:8.10605;stroke-linecap:square;stroke-linejoin:bevel;stroke-dasharray:none;stroke-opacity:1;paint-order:normal"
         id="ellipse6"
         cx="1512.9369"
         cy="268.00403"
         rx="18.773481"
         ry="1.6559293" />
      <circle
         style="fill:#565466;fill-opacity:1;stroke:#000000;stroke-width:3.34395;stroke-linecap:square;stroke-linejoin:bevel;stroke-dasharray:none;stroke-opacity:1;paint-order:normal"
         id="circle7"
         cx="1531.7848"
         cy="-332.42172"
         transform="scale(1,-1)"
         r="10.811836" />
      <ellipse
         style="fill:#3b3542;fill-opacity:1;stroke:#000000;stroke-width:8.10605;stroke-linecap:square;stroke-linejoin:bevel;stroke-dasharray:none;stroke-opacity:1;paint-order:normal"
         id="ellipse7"
         cx="1512.9369"
         cy="332.12897"
         rx="18.773481"
         ry="1.6559293" />
      <path
         id="rect9"
         style="display:inline;fill:#fff8f0;stroke:#000000;stroke-width:5;stroke-linecap:square;stroke-linejoin:bevel;stroke-dasharray:none"
         d="m 1603.1991,67.29964 h 289.0736 c 6.2532,0 11.2874,4.615464 11.2874,10.348575 V 468.01545 c 0,5.73311 -5.0342,10.34858 -11.2874,10.34858 h -325.2552 c -6.2533,0 -11.2875,-4.61547 -11.2875,-10.34858 V 104.70092 c 0,-5.733111 41.2158,-37.40128 47.4691,-37.40128 z"
         sodipodi:nodetypes="sssssssss" />
      <circle
         style="fill:#565466;fill-opacity:1;stroke:#000000;stroke-width:3.34395;stroke-linecap:square;stroke-linejoin:bevel;stroke-dasharray:none;stroke-opacity:1;paint-order:normal"
         id="circle8"
         cx="1531.7848"
         cy="-394.3201"
         transform="scale(1,-1)"
         r="10.811836" />
      <ellipse
         style="fill:#3b3542;fill-opacity:1;stroke:#000000;stroke-width:8.10605;stroke-linecap:square;stroke-linejoin:bevel;stroke-dasharray:none;stroke-opacity:1;paint-order:normal"
         id="ellipse8"
         cx="1512.9369"
         cy="394.02734"
         rx="18.773481"
         ry="1.6559293" />
      <circle
         style="fill:#565466;fill-opacity:1;stroke:#000000;stroke-width:3.34395;stroke-linecap:square;stroke-linejoin:bevel;stroke-dasharray:none;stroke-opacity:1;paint-order:normal"
         id="circle9"
         cx="1531.7848"
         cy="-461.35126"
         transform="scale(1,-1)"
         r="10.811836" />
      <ellipse
         style="fill:#3b3542;fill-opacity:1;stroke:#000000;stroke-width:8.10605;stroke-linecap:square;stroke-linejoin:bevel;stroke-dasharray:none;stroke-opacity:1;paint-order:normal"
         id="ellipse9"
         cx="1512.9369"
         cy="461.0585"
         rx="18.773481"
         ry="1.6559293" />
      <path
         id="path9"
         style="display:inline;fill:#fff8f0;stroke:#000000;stroke-width:4.59295;stroke-linecap:square;stroke-linejoin:bevel;stroke-dasharray:none"
         d="m 1588.7956,104.88621 9.3744,-33.784419 c 0.1802,-0.649461 -0.033,-1.590816 -0.3412,-1.357251 l -21.4909,16.5082 c -0.9028,0.69356 -13.4526,10.375726 -13.8073,10.948871 l -0.2095,0.338527 c -0.3546,0.573141 -0.028,1.254794 0.3413,1.357249 l 25.1414,6.976183 c 0.3692,0.10246 0.8116,-0.3379 0.9918,-0.98736 z"
         sodipodi:nodetypes="sssssssss" />
    </g>
  </g>
</svg>
