<?xml version="1.0" encoding="UTF-8" standalone="no"?>
<!-- Created with Inkscape (http://www.inkscape.org/) -->

<svg
   width="130.25778"
   height="83.938538"
   viewBox="0 0 130.25778 83.938538"
   version="1.1"
   id="svg1"
   inkscape:version="1.3 (0e150ed6c4, 2023-07-21)"
   sodipodi:docname="fastforward.svg"
   inkscape:export-filename="..\..\..\..\..\..\Git\LD54\LD54\Images\UIsvg\background.svg"
   inkscape:export-xdpi="96"
   inkscape:export-ydpi="96"
   xmlns:inkscape="http://www.inkscape.org/namespaces/inkscape"
   xmlns:sodipodi="http://sodipodi.sourceforge.net/DTD/sodipodi-0.dtd"
   xmlns="http://www.w3.org/2000/svg"
   xmlns:svg="http://www.w3.org/2000/svg">
  <sodipodi:namedview
     id="namedview1"
     pagecolor="#ffffff"
     bordercolor="#000000"
     borderopacity="0.25"
     inkscape:showpageshadow="2"
     inkscape:pageopacity="0.0"
     inkscape:pagecheckerboard="0"
     inkscape:deskcolor="#d1d1d1"
     inkscape:document-units="px"
     inkscape:zoom="1.3481503"
     inkscape:cx="-147.98054"
     inkscape:cy="-67.870772"
     inkscape:window-width="1920"
     inkscape:window-height="1009"
     inkscape:window-x="-8"
     inkscape:window-y="-8"
     inkscape:window-maximized="1"
     inkscape:current-layer="layer3" />
  <defs
     id="defs1" />
  <g
     inkscape:groupmode="layer"
     id="layer3"
     inkscape:label="animation UI"
     style="display:inline"
     transform="translate(-126.27359,-975.18573)">
    <rect
       style="fill:#d6a9a9;fill-opacity:1;stroke:#000000;stroke-width:5;stroke-linecap:square;stroke-linejoin:bevel;stroke-dasharray:none;stroke-opacity:1;paint-order:normal"
       id="rect61"
       width="125.2578"
       height="78.938583"
       x="128.77359"
       y="977.68573"
       rx="13.892578" />
    <path
       id="path1"
       style="fill:#a12758;stroke:#000000;stroke-width:5;stroke-linecap:square;stroke-linejoin:bevel;stroke-dasharray:none"
       d="m 156.31555,1002.3322 c 2.78409,0.7446 4.57222,0.7436 9.02964,2.0347 7.30363,2.1157 23.12954,5.8785 23.22977,11.8253 0.10205,5.9472 -16.06914,10.3757 -23.09112,12.3718 l -9.0991,2.5864 c -7.02168,1.9961 -6.00562,-9.1791 -6.00562,-14.4091 0,-5.23 -1.10714,-16.2933 5.93643,-14.4091 z"
       sodipodi:nodetypes="sszsszs" />
    <path
       id="path2"
       style="fill:#a12758;stroke:#000000;stroke-width:5;stroke-linecap:square;stroke-linejoin:bevel;stroke-dasharray:none"
       d="m 202.67537,1002.1468 c 2.78409,0.7446 4.57222,0.7436 9.02964,2.0347 7.30363,2.1157 23.12954,5.8785 23.22977,11.8253 0.10205,5.9472 -16.06914,10.3757 -23.09112,12.3718 l -9.0991,2.5864 c -7.02168,1.9961 -6.00562,-9.1791 -6.00562,-14.4091 0,-5.23 -1.10714,-16.2933 5.93643,-14.4091 z"
       sodipodi:nodetypes="sszsszs" />
  </g>
</svg>
