<?xml version="1.0" encoding="UTF-8" standalone="no"?>
<!-- Created with Inkscape (http://www.inkscape.org/) -->

<svg
   width="512"
   height="512"
   viewBox="0 0 512 512"
   version="1.1"
   id="svg1"
   inkscape:version="1.3 (0e150ed6c4, 2023-07-21)"
   sodipodi:docname="speechbubble.svg"
   inkscape:export-filename="speechbubble.svg"
   inkscape:export-xdpi="96"
   inkscape:export-ydpi="96"
   xmlns:inkscape="http://www.inkscape.org/namespaces/inkscape"
   xmlns:sodipodi="http://sodipodi.sourceforge.net/DTD/sodipodi-0.dtd"
   xmlns="http://www.w3.org/2000/svg"
   xmlns:svg="http://www.w3.org/2000/svg">
  <sodipodi:namedview
     id="namedview1"
     pagecolor="#ffffff"
     bordercolor="#000000"
     borderopacity="0.25"
     inkscape:showpageshadow="2"
     inkscape:pageopacity="0.0"
     inkscape:pagecheckerboard="0"
     inkscape:deskcolor="#d1d1d1"
     inkscape:document-units="px"
     inkscape:zoom="0.79394531"
     inkscape:cx="135.39975"
     inkscape:cy="266.39114"
     inkscape:window-width="1920"
     inkscape:window-height="1009"
     inkscape:window-x="-8"
     inkscape:window-y="-8"
     inkscape:window-maximized="1"
     inkscape:current-layer="layer1" />
  <defs
     id="defs1">
    <inkscape:path-effect
       effect="bspline"
       id="path-effect1"
       is_visible="true"
       lpeversion="1.3"
       weight="33.333333"
       steps="2"
       helper_size="0"
       apply_no_weight="true"
       apply_with_weight="true"
       only_selected="false"
       uniform="false" />
  </defs>
  <g
     inkscape:label="Layer 1"
     inkscape:groupmode="layer"
     id="layer1">
    <path
       id="rect1"
       style="fill:#bdc4c9;fill-opacity:1;stroke:#000000;stroke-width:10.3899;stroke-linecap:square;stroke-linejoin:bevel;stroke-dasharray:none;stroke-opacity:1"
       d="m 124.18619,66.101188 c -57.560076,0 -103.899157,46.339082 -103.899157,103.899162 V 243.509 c 0,57.56007 46.340049,103.56537 103.899157,103.89916 l 54.29842,0.31488 c -5.27648,10.56361 -9.3675,27.67031 -22.58634,42.00479 -19.45067,21.09227 -31.06192,30.45682 -48.11004,41.46667 -16.460355,10.63027 26.90279,11.18224 47.49734,5.30014 20.59455,-5.88214 37.23262,-13.19703 61.46907,-34.76362 16.64956,-14.81546 23.28984,-37.72897 27.37636,-54.32286 h 146.96239 c 57.56006,0 103.89915,-46.33909 103.89915,-103.89916 v -73.50865 c 0,-57.56008 -46.33909,-103.899162 -103.89915,-103.899162 z"
       sodipodi:nodetypes="sssscsssscsssss" />
  </g>
</svg>
